<svg xmlns:xlink="http://www.w3.org/1999/xlink"  data-v-8132fb09="" xmlns="http://www.w3.org/2000/svg" width="14" height="9" fill="#00FF00" viewBox="0 1 14 8" class="h-full w-full"><path d="M11.454 3.443v1.063H9.393V3.443h-4.57v1.063H2.737V3.443H.337v4.544a.93.93 0 0 0 .936.922h11.454a.929.929 0 0 0 .93-.929V3.443h-2.203ZM12.727 0a.93.93 0 0 1 .955.923v.866H14v.871h-2.546V1.642H9.393V2.66H4.792V1.642H2.73V2.66H0v-.75a.102.102 0 0 1 .095-.102h.242V.923A.93.93 0 0 1 1.273 0h1.654c0 .293.09.44.268.44h7.7c.165 0 .248-.147.248-.44h1.584ZM3.182 2.19h1.17v1.82h-1.17V2.19Zm6.65 0h1.164v1.813H9.838L9.832 2.19Z"></path></svg>