<svg xmlns:xlink="http://www.w3.org/1999/xlink"  data-v-8132fb09="" xmlns="http://www.w3.org/2000/svg" width="14" height="14" fill="#00FF00" class="h-full w-full"><g clip-path="url(#icon-match-betting_svg__a)"><path d="m10.695 8.001.228-.228a.5.5 0 0 1 .783.096l.53.884a.5.5 0 0 1-.075.611l-.484.484 1.353 1.353a1 1 0 1 1-1.415 1.414l-1.352-1.353-.732.732a.5.5 0 0 1-.61.075l-.885-.53a.5.5 0 0 1-.096-.783l.442-.442-1.318-1.05-1.482 1.264.228.228a.5.5 0 0 1-.096.783l-.884.53a.5.5 0 0 1-.611-.075l-.484-.484-1.353 1.353a1 1 0 0 1-1.414-1.415l1.353-1.352-.732-.732a.5.5 0 0 1-.075-.61l.53-.885a.5.5 0 0 1 .783-.096l.442.442.963-1.209-2.606-2.078a1 1 0 0 1-.371-.673l-.242-2.218A1 1 0 0 1 2.08.93l2.339.171a1 1 0 0 1 .688.349L10.695 8ZM12.132 4.94l-1.126.96L7.96 2.33l.695-.871a1 1 0 0 1 .673-.371l2.218-.242a1 1 0 0 1 1.106 1.067l-.171 2.34a1 1 0 0 1-.349.687Z"></path></g><defs><clipPath id="icon-match-betting_svg__a"><path d="M0 0h14v14H0z"></path></clipPath></defs></svg>