<svg xmlns:xlink="http://www.w3.org/1999/xlink"  data-v-8132fb09="" xmlns="http://www.w3.org/2000/svg" width="14" height="14" fill="#00FF00" class="h-full w-full"><path fill-rule="evenodd" d="M1.208 2.807c0 .998 2.828 1.807 6.317 1.807 3.488 0 6.316-.81 6.316-1.807C13.841 1.809 11.013 1 7.525 1c-3.49 0-6.317.809-6.317 1.807ZM7.51 1.494c-2.324 0-4.264.429-4.728 1a.417.417 0 0 0-.106.263l.002.118.003.119c.06-.058.092-.089.128-.115.04-.031.086-.056.183-.11.709-.432 2.475-.662 4.518-.662 2.087 0 3.887.254 4.564.702.09.054.127.077.163.103.028.02.054.042.102.082.005-.017.005-.22.005-.237a.405.405 0 0 0-.089-.241c-.431-.582-2.39-1.022-4.745-1.022Z" clip-rule="evenodd"></path><path d="M11.987 5.712c-1.262.41-2.852.651-4.476.636-3.584-.035-5.26-.959-5.26-.96-.681-.318-1.07-.671-1.07-.993V2.93c0-.017.002-.034.004-.051.222.407.77.712 1.275.918l.42.155c.126.042.241.076.336.102l.56.134c1.048.218 2.338.348 3.735.348 3.32 0 6.043-.729 6.326-1.657a.358.358 0 0 1 .004.05v1.498c0 .428-.693.909-1.854 1.285Z"></path><path d="M.004 6.226c.222.407.77.712 1.275.918l.42.155c.126.042.24.076.335.102l.56.134c1.048.218 2.34.348 3.736.348 3.319 0 6.043-.729 6.326-1.657a.358.358 0 0 1 .004.05v1.498c0 .428-.693.909-1.854 1.285-1.262.41-2.852.651-4.476.636-3.584-.035-5.26-.959-5.26-.96C.39 8.418 0 8.065 0 7.743V6.277c0-.017.002-.034.004-.051Z"></path><path d="M7.67 11.187c1.397 0 2.688-.129 3.736-.347l.56-.134c.094-.026.209-.06.335-.102l.42-.155c.505-.206 1.053-.511 1.275-.918a.357.357 0 0 1 .004.05v1.466c0 .322-.389.675-1.07.994 0 0-1.676.924-5.26.958-1.624.016-3.214-.225-4.476-.635-1.161-.377-1.854-.857-1.854-1.285V9.582c0-.018.002-.035.004-.051.283.928 3.007 1.656 6.326 1.656ZM7.316 7.183a13.58 13.58 0 0 0 4.476-.635c.316-.102.596-.212.838-.327-.124.967-2.902 1.74-6.312 1.74C2.83 7.96.002 7.15.002 6.154c0-.357.36-.689.984-.97v.047c0 .338.428.71 1.175 1.042 0 0 1.643.806 5.155.91Z"></path><path d="M7.653 11.368c-3.41 0-6.188-.773-6.312-1.74.242.115.523.226.838.328a13.58 13.58 0 0 0 4.476.635c3.512-.104 5.155-.91 5.155-.91.747-.332 1.175-.704 1.175-1.042v-.046c.623.28.985.612.985.969 0 .997-2.828 1.806-6.317 1.806Z"></path></svg>