<svg xmlns:xlink="http://www.w3.org/1999/xlink"  data-v-8132fb09="" xmlns="http://www.w3.org/2000/svg" width="14" height="14" fill="#00FF00" class="h-full w-full"><path d="M7 0C3.14 0 0 3.14 0 7s3.14 7 7 7 7-3.14 7-7-3.14-7-7-7ZM2.505 11.699A6.488 6.488 0 0 1 .493 7l.002-.115 1.813.624 1.268 3.27-1.071.92Zm1.484-9.603L7.28.912 9.636 3.11 7.7 5.882 4.1 5.198l-.11-3.102Zm7.357 9.742c-.136.123-.277.24-.423.35l-2.705 1.156-1.773-1.847 2.3-2.589 3.074.378-.473 2.552Zm.867-8.729A6.473 6.473 0 0 1 13.508 7c0 .04-.002.078-.003.117l-.367-.093-1.107-3.121.182-.794Z"></path></svg>