<svg xmlns:xlink="http://www.w3.org/1999/xlink"  data-v-8132fb09="" xmlns="http://www.w3.org/2000/svg" width="14" height="14" fill="#00FF00" class="h-full w-full"><g clip-path="url(#icon-roulette_svg__a)"><path d="M9.027 6.105c.124-.125.284-.204.443-.282l.11-.055a1 1 0 1 0-1.348-1.347l-.055.109c-.078.159-.157.319-.282.443l-.188.188c-.048.048-.099.09-.153.126a1.799 1.799 0 0 0-1.108 0 1.004 1.004 0 0 1-.153-.126l-.188-.188C5.98 4.85 5.9 4.69 5.823 4.53a7.118 7.118 0 0 0-.055-.11A1 1 0 1 0 4.42 5.769l.109.055c.159.078.319.157.443.282l.188.188c.048.047.09.099.126.153a1.799 1.799 0 0 0 0 1.108 1.004 1.004 0 0 1-.126.153l-.188.188c-.124.125-.284.204-.443.282a7.207 7.207 0 0 0-.11.055A1 1 0 1 0 5.769 9.58l.055-.109c.078-.159.157-.319.282-.443l.188-.189c.047-.047.099-.089.153-.125a1.799 1.799 0 0 0 1.108 0c.054.036.105.078.153.125l.188.189c.125.124.204.284.282.443l.055.11a1 1 0 1 0 1.347-1.348 7.118 7.118 0 0 0-.109-.055c-.159-.078-.319-.157-.443-.282l-.189-.188a1.005 1.005 0 0 1-.125-.153 1.799 1.799 0 0 0 0-1.108c.036-.054.078-.106.125-.153l.189-.188Z"></path><path fill-rule="evenodd" d="M2.05 11.95a7 7 0 1 0 9.9-9.9 7 7 0 0 0-9.9 9.9Zm1.132-1.132a5.4 5.4 0 1 1 7.636-7.636 5.4 5.4 0 0 1-7.636 7.636Z" clip-rule="evenodd"></path></g><defs><clipPath id="icon-roulette_svg__a"><path d="M0 0h14v14H0z"></path></clipPath></defs></svg>